<svg xmlns="http://www.w3.org/2000/svg" version="1.1" xmlns:xlink="http://www.w3.org/1999/xlink" xmlns:svgjs="http://svgjs.dev/svgjs" width="512" height="512"><svg width="512" height="512" viewBox="0 0 512 512" fill="none" xmlns="http://www.w3.org/2000/svg">
<rect width="512" height="512" rx="256" fill="#FB5826"></rect>
<mask id="SvgjsMask1017" style="mask-type:alpha" maskUnits="userSpaceOnUse" x="48" y="48" width="416" height="416">
<rect x="48" y="48" width="416" height="416" fill="#D9D9D9"></rect>
</mask>
<g mask="url(#mask0_734_928)">
<path d="M152 429.333V354.8C135.533 339.778 122.75 322.228 113.65 302.15C104.55 282.072 100 260.911 100 238.667C100 195.333 115.167 158.5 145.5 128.167C175.833 97.8334 212.667 82.6667 256 82.6667C292.111 82.6667 324.106 93.2834 351.983 114.517C379.861 135.75 397.989 163.411 406.367 197.5L428.9 286.333C430.344 291.822 429.333 296.806 425.867 301.283C422.4 305.761 417.778 308 412 308H377.333V360C377.333 369.533 373.939 377.695 367.15 384.483C360.361 391.272 352.2 394.667 342.667 394.667H308V429.333H273.333V360H342.667V273.333H389.467L373 206.167C366.356 179.878 352.2 158.5 330.533 142.033C308.867 125.567 284.022 117.333 256 117.333C222.489 117.333 193.889 129.033 170.2 152.433C146.511 175.833 134.667 204.289 134.667 237.8C134.667 255.133 138.206 271.6 145.283 287.2C152.361 302.8 162.4 316.667 175.4 328.8L186.667 339.2V429.333H152ZM238.667 308H273.333L275.933 286.333C278.244 285.467 280.339 284.456 282.217 283.3C284.094 282.145 285.756 280.845 287.2 279.4L307.133 288.067L324.467 258.6L307.133 245.6C307.711 243.289 308 240.978 308 238.667C308 236.356 307.711 234.045 307.133 231.733L324.467 218.733L307.133 189.267L287.2 197.933C285.756 196.489 284.094 195.189 282.217 194.033C280.339 192.878 278.244 191.867 275.933 191L273.333 169.333H238.667L236.067 191C233.756 191.867 231.661 192.878 229.783 194.033C227.906 195.189 226.244 196.489 224.8 197.933L204.867 189.267L187.533 218.733L204.867 231.733C204.289 234.045 204 236.356 204 238.667C204 240.978 204.289 243.289 204.867 245.6L187.533 258.6L204.867 288.067L224.8 279.4C226.244 280.845 227.906 282.145 229.783 283.3C231.661 284.456 233.756 285.467 236.067 286.333L238.667 308ZM256 264.667C248.778 264.667 242.639 262.139 237.583 257.083C232.528 252.028 230 245.889 230 238.667C230 231.445 232.528 225.306 237.583 220.25C242.639 215.195 248.778 212.667 256 212.667C263.222 212.667 269.361 215.195 274.417 220.25C279.472 225.306 282 231.445 282 238.667C282 245.889 279.472 252.028 274.417 257.083C269.361 262.139 263.222 264.667 256 264.667Z" fill="#F4EBEB"></path>
</g>
</svg><style>@media (prefers-color-scheme: light) { :root { filter: none; } }
@media (prefers-color-scheme: dark) { :root { filter: none; } }
</style></svg>