<svg width="1200" height="630" viewBox="0 0 1200 630" fill="none" xmlns="http://www.w3.org/2000/svg">
<rect width="1200" height="630" fill="#D0BFFF"/>
<path d="M182.886 270V200.182H209.068C214.432 200.182 218.932 201.182 222.568 203.182C226.227 205.182 228.989 207.932 230.852 211.432C232.739 214.909 233.682 218.864 233.682 223.295C233.682 227.773 232.739 231.75 230.852 235.227C228.966 238.705 226.182 241.443 222.5 243.443C218.818 245.42 214.284 246.409 208.898 246.409H191.545V236.011H207.193C210.33 236.011 212.898 235.466 214.898 234.375C216.898 233.284 218.375 231.784 219.33 229.875C220.307 227.966 220.795 225.773 220.795 223.295C220.795 220.818 220.307 218.636 219.33 216.75C218.375 214.864 216.886 213.398 214.864 212.352C212.864 211.284 210.284 210.75 207.125 210.75H195.534V270H182.886ZM244.122 270V217.636H256.088V226.364H256.634C257.588 223.341 259.224 221.011 261.543 219.375C263.884 217.716 266.554 216.886 269.554 216.886C270.236 216.886 270.997 216.92 271.838 216.989C272.702 217.034 273.418 217.114 273.986 217.227V228.58C273.463 228.398 272.634 228.239 271.497 228.102C270.384 227.943 269.304 227.864 268.259 227.864C266.009 227.864 263.986 228.352 262.19 229.33C260.418 230.284 259.02 231.614 257.997 233.318C256.974 235.023 256.463 236.989 256.463 239.216V270H244.122ZM302.869 271.023C297.756 271.023 293.324 269.898 289.574 267.648C285.824 265.398 282.915 262.25 280.847 258.205C278.801 254.159 277.778 249.432 277.778 244.023C277.778 238.614 278.801 233.875 280.847 229.807C282.915 225.739 285.824 222.58 289.574 220.33C293.324 218.08 297.756 216.955 302.869 216.955C307.983 216.955 312.415 218.08 316.165 220.33C319.915 222.58 322.813 225.739 324.858 229.807C326.926 233.875 327.96 238.614 327.96 244.023C327.96 249.432 326.926 254.159 324.858 258.205C322.813 262.25 319.915 265.398 316.165 267.648C312.415 269.898 307.983 271.023 302.869 271.023ZM302.938 261.136C305.71 261.136 308.028 260.375 309.892 258.852C311.756 257.307 313.142 255.239 314.051 252.648C314.983 250.057 315.449 247.17 315.449 243.989C315.449 240.784 314.983 237.886 314.051 235.295C313.142 232.682 311.756 230.602 309.892 229.057C308.028 227.511 305.71 226.739 302.938 226.739C300.097 226.739 297.733 227.511 295.847 229.057C293.983 230.602 292.585 232.682 291.653 235.295C290.744 237.886 290.29 240.784 290.29 243.989C290.29 247.17 290.744 250.057 291.653 252.648C292.585 255.239 293.983 257.307 295.847 258.852C297.733 260.375 300.097 261.136 302.938 261.136ZM338.435 289.636V217.636H350.571V226.295H351.287C351.923 225.023 352.821 223.67 353.98 222.239C355.139 220.784 356.707 219.545 358.685 218.523C360.662 217.477 363.185 216.955 366.253 216.955C370.298 216.955 373.946 217.989 377.196 220.057C380.469 222.102 383.06 225.136 384.969 229.159C386.901 233.159 387.866 238.068 387.866 243.886C387.866 249.636 386.923 254.523 385.037 258.545C383.151 262.568 380.582 265.636 377.332 267.75C374.082 269.864 370.401 270.92 366.287 270.92C363.287 270.92 360.798 270.42 358.821 269.42C356.844 268.42 355.253 267.216 354.048 265.807C352.866 264.375 351.946 263.023 351.287 261.75H350.776V289.636H338.435ZM350.537 243.818C350.537 247.205 351.014 250.17 351.969 252.716C352.946 255.261 354.344 257.25 356.162 258.682C358.003 260.091 360.23 260.795 362.844 260.795C365.571 260.795 367.855 260.068 369.696 258.614C371.537 257.136 372.923 255.125 373.855 252.58C374.81 250.011 375.287 247.091 375.287 243.818C375.287 240.568 374.821 237.682 373.889 235.159C372.957 232.636 371.571 230.659 369.73 229.227C367.889 227.795 365.594 227.08 362.844 227.08C360.207 227.08 357.969 227.773 356.128 229.159C354.287 230.545 352.889 232.489 351.935 234.989C351.003 237.489 350.537 240.432 350.537 243.818ZM421.616 271.023C416.366 271.023 411.832 269.932 408.014 267.75C404.219 265.545 401.298 262.432 399.253 258.409C397.207 254.364 396.185 249.602 396.185 244.125C396.185 238.739 397.207 234.011 399.253 229.943C401.321 225.852 404.207 222.67 407.912 220.398C411.616 218.102 415.969 216.955 420.969 216.955C424.196 216.955 427.241 217.477 430.105 218.523C432.991 219.545 435.537 221.136 437.741 223.295C439.969 225.455 441.719 228.205 442.991 231.545C444.264 234.864 444.901 238.818 444.901 243.409V247.193H401.98V238.875H433.071C433.048 236.511 432.537 234.409 431.537 232.568C430.537 230.705 429.139 229.239 427.344 228.17C425.571 227.102 423.503 226.568 421.139 226.568C418.616 226.568 416.401 227.182 414.491 228.409C412.582 229.614 411.094 231.205 410.026 233.182C408.98 235.136 408.446 237.284 408.423 239.625V246.886C408.423 249.932 408.98 252.545 410.094 254.727C411.207 256.886 412.764 258.545 414.764 259.705C416.764 260.841 419.105 261.409 421.787 261.409C423.582 261.409 425.207 261.159 426.662 260.659C428.116 260.136 429.378 259.375 430.446 258.375C431.514 257.375 432.321 256.136 432.866 254.659L444.389 255.955C443.662 259 442.276 261.659 440.23 263.932C438.207 266.182 435.616 267.932 432.457 269.182C429.298 270.409 425.685 271.023 421.616 271.023ZM455.341 270V217.636H467.307V226.364H467.852C468.807 223.341 470.443 221.011 472.761 219.375C475.102 217.716 477.773 216.886 480.773 216.886C481.455 216.886 482.216 216.92 483.057 216.989C483.92 217.034 484.636 217.114 485.205 217.227V228.58C484.682 228.398 483.852 228.239 482.716 228.102C481.602 227.943 480.523 227.864 479.477 227.864C477.227 227.864 475.205 228.352 473.409 229.33C471.636 230.284 470.239 231.614 469.216 233.318C468.193 235.023 467.682 236.989 467.682 239.216V270H455.341ZM522.364 217.636V227.182H492.261V217.636H522.364ZM499.693 205.091H512.034V254.25C512.034 255.909 512.284 257.182 512.784 258.068C513.307 258.932 513.989 259.523 514.83 259.841C515.67 260.159 516.602 260.318 517.625 260.318C518.398 260.318 519.102 260.261 519.739 260.148C520.398 260.034 520.898 259.932 521.239 259.841L523.318 269.489C522.659 269.716 521.716 269.966 520.489 270.239C519.284 270.511 517.807 270.67 516.057 270.716C512.966 270.807 510.182 270.341 507.705 269.318C505.227 268.273 503.261 266.659 501.807 264.477C500.375 262.295 499.67 259.568 499.693 256.295V205.091ZM540.355 289.636C538.673 289.636 537.116 289.5 535.685 289.227C534.276 288.977 533.151 288.682 532.31 288.341L535.173 278.727C536.969 279.25 538.571 279.5 539.98 279.477C541.389 279.455 542.628 279.011 543.696 278.148C544.787 277.307 545.707 275.898 546.457 273.92L547.514 271.091L528.526 217.636H541.616L553.685 257.182H554.23L566.332 217.636H579.457L558.491 276.341C557.514 279.114 556.219 281.489 554.605 283.466C552.991 285.466 551.014 286.989 548.673 288.034C546.355 289.102 543.582 289.636 540.355 289.636Z" fill="black"/>
<path d="M626.886 428V358.182H671.614V368.784H639.534V387.739H668.545V398.341H639.534V428H626.886ZM712.685 405.977V375.636H725.026V428H713.06V418.693H712.514C711.332 421.625 709.389 424.023 706.685 425.886C704.003 427.75 700.696 428.682 696.764 428.682C693.332 428.682 690.298 427.92 687.662 426.398C685.048 424.852 683.003 422.614 681.526 419.682C680.048 416.727 679.31 413.159 679.31 408.977V375.636H691.651V407.068C691.651 410.386 692.56 413.023 694.378 414.977C696.196 416.932 698.582 417.909 701.537 417.909C703.355 417.909 705.116 417.466 706.821 416.58C708.526 415.693 709.923 414.375 711.014 412.625C712.128 410.852 712.685 408.636 712.685 405.977ZM750.057 397.318V428H737.716V375.636H749.511V384.534H750.125C751.33 381.602 753.25 379.273 755.886 377.545C758.545 375.818 761.83 374.955 765.739 374.955C769.352 374.955 772.5 375.727 775.182 377.273C777.886 378.818 779.977 381.057 781.455 383.989C782.955 386.92 783.693 390.477 783.67 394.659V428H771.33V396.568C771.33 393.068 770.42 390.33 768.602 388.352C766.807 386.375 764.318 385.386 761.136 385.386C758.977 385.386 757.057 385.864 755.375 386.818C753.716 387.75 752.409 389.102 751.455 390.875C750.523 392.648 750.057 394.795 750.057 397.318ZM819.057 429.023C813.83 429.023 809.341 427.875 805.591 425.58C801.864 423.284 798.989 420.114 796.966 416.068C794.966 412 793.966 407.318 793.966 402.023C793.966 396.705 794.989 392.011 797.034 387.943C799.08 383.852 801.966 380.67 805.693 378.398C809.443 376.102 813.875 374.955 818.989 374.955C823.239 374.955 827 375.739 830.273 377.307C833.568 378.852 836.193 381.045 838.148 383.886C840.102 386.705 841.216 390 841.489 393.773H829.693C829.216 391.25 828.08 389.148 826.284 387.466C824.511 385.761 822.136 384.909 819.159 384.909C816.636 384.909 814.42 385.591 812.511 386.955C810.602 388.295 809.114 390.227 808.045 392.75C807 395.273 806.477 398.295 806.477 401.818C806.477 405.386 807 408.455 808.045 411.023C809.091 413.568 810.557 415.534 812.443 416.92C814.352 418.284 816.591 418.966 819.159 418.966C820.977 418.966 822.602 418.625 824.034 417.943C825.489 417.239 826.705 416.227 827.682 414.909C828.659 413.591 829.33 411.989 829.693 410.102H841.489C841.193 413.807 840.102 417.091 838.216 419.955C836.33 422.795 833.761 425.023 830.511 426.636C827.261 428.227 823.443 429.023 819.057 429.023ZM877.77 375.636V385.182H847.668V375.636H877.77ZM855.099 363.091H867.44V412.25C867.44 413.909 867.69 415.182 868.19 416.068C868.713 416.932 869.395 417.523 870.236 417.841C871.077 418.159 872.009 418.318 873.031 418.318C873.804 418.318 874.509 418.261 875.145 418.148C875.804 418.034 876.304 417.932 876.645 417.841L878.724 427.489C878.065 427.716 877.122 427.966 875.895 428.239C874.69 428.511 873.213 428.67 871.463 428.716C868.372 428.807 865.588 428.341 863.111 427.318C860.634 426.273 858.668 424.659 857.213 422.477C855.781 420.295 855.077 417.568 855.099 414.295V363.091ZM888.091 428V375.636H900.432V428H888.091ZM894.295 368.205C892.341 368.205 890.659 367.557 889.25 366.261C887.841 364.943 887.136 363.364 887.136 361.523C887.136 359.659 887.841 358.08 889.25 356.784C890.659 355.466 892.341 354.807 894.295 354.807C896.273 354.807 897.955 355.466 899.341 356.784C900.75 358.08 901.455 359.659 901.455 361.523C901.455 363.364 900.75 364.943 899.341 366.261C897.955 367.557 896.273 368.205 894.295 368.205ZM935.963 429.023C930.849 429.023 926.418 427.898 922.668 425.648C918.918 423.398 916.009 420.25 913.94 416.205C911.895 412.159 910.872 407.432 910.872 402.023C910.872 396.614 911.895 391.875 913.94 387.807C916.009 383.739 918.918 380.58 922.668 378.33C926.418 376.08 930.849 374.955 935.963 374.955C941.077 374.955 945.509 376.08 949.259 378.33C953.009 380.58 955.906 383.739 957.952 387.807C960.02 391.875 961.054 396.614 961.054 402.023C961.054 407.432 960.02 412.159 957.952 416.205C955.906 420.25 953.009 423.398 949.259 425.648C945.509 427.898 941.077 429.023 935.963 429.023ZM936.031 419.136C938.804 419.136 941.122 418.375 942.986 416.852C944.849 415.307 946.236 413.239 947.145 410.648C948.077 408.057 948.543 405.17 948.543 401.989C948.543 398.784 948.077 395.886 947.145 393.295C946.236 390.682 944.849 388.602 942.986 387.057C941.122 385.511 938.804 384.739 936.031 384.739C933.19 384.739 930.827 385.511 928.94 387.057C927.077 388.602 925.679 390.682 924.747 393.295C923.838 395.886 923.384 398.784 923.384 401.989C923.384 405.17 923.838 408.057 924.747 410.648C925.679 413.239 927.077 415.307 928.94 416.852C930.827 418.375 933.19 419.136 936.031 419.136ZM983.869 397.318V428H971.528V375.636H983.324V384.534H983.938C985.142 381.602 987.063 379.273 989.699 377.545C992.358 375.818 995.642 374.955 999.551 374.955C1003.16 374.955 1006.31 375.727 1008.99 377.273C1011.7 378.818 1013.79 381.057 1015.27 383.989C1016.77 386.92 1017.51 390.477 1017.48 394.659V428H1005.14V396.568C1005.14 393.068 1004.23 390.33 1002.41 388.352C1000.62 386.375 998.131 385.386 994.949 385.386C992.79 385.386 990.869 385.864 989.188 386.818C987.528 387.75 986.222 389.102 985.267 390.875C984.335 392.648 983.869 394.795 983.869 397.318Z" fill="black"/>
<line x1="667.231" y1="133.816" x2="526.816" y2="498.733" stroke="black" stroke-width="9" stroke-linecap="round"/>
</svg>
