<svg width="1200" height="630" viewBox="0 0 1200 630" fill="none" xmlns="http://www.w3.org/2000/svg">
<rect width="1200" height="630" fill="white"/>
<rect x="109.5" y="236.5" width="981" height="106" fill="white" stroke="black" stroke-width="3"/>
<line x1="218.5" y1="344" x2="218.5" y2="235" stroke="black" stroke-width="3"/>
<line x1="545.5" y1="344" x2="545.5" y2="235" stroke="black" stroke-width="3"/>
<line x1="872.5" y1="344" x2="872.5" y2="235" stroke="black" stroke-width="3"/>
<line x1="327.5" y1="344" x2="327.5" y2="235" stroke="black" stroke-width="3"/>
<line x1="654.5" y1="344" x2="654.5" y2="235" stroke="black" stroke-width="3"/>
<line x1="981.5" y1="344" x2="981.5" y2="235" stroke="black" stroke-width="3"/>
<line x1="436.5" y1="344" x2="436.5" y2="235" stroke="black" stroke-width="3"/>
<line x1="763.5" y1="344" x2="763.5" y2="235" stroke="black" stroke-width="3"/>
<path d="M163 383.318C161.288 383.318 159.83 382.852 158.625 381.92C157.42 380.981 156.5 379.621 155.864 377.841C155.227 376.053 154.909 373.894 154.909 371.364C154.909 368.848 155.227 366.701 155.864 364.92C156.508 363.133 157.432 361.769 158.636 360.83C159.848 359.883 161.303 359.409 163 359.409C164.697 359.409 166.148 359.883 167.352 360.83C168.564 361.769 169.489 363.133 170.125 364.92C170.769 366.701 171.091 368.848 171.091 371.364C171.091 373.894 170.773 376.053 170.136 377.841C169.5 379.621 168.58 380.981 167.375 381.92C166.17 382.852 164.712 383.318 163 383.318ZM163 380.818C164.697 380.818 166.015 380 166.955 378.364C167.894 376.727 168.364 374.394 168.364 371.364C168.364 369.348 168.148 367.633 167.716 366.216C167.292 364.799 166.678 363.72 165.875 362.977C165.08 362.235 164.121 361.864 163 361.864C161.318 361.864 160.004 362.693 159.057 364.352C158.11 366.004 157.636 368.341 157.636 371.364C157.636 373.379 157.848 375.091 158.273 376.5C158.697 377.909 159.307 378.981 160.102 379.716C160.905 380.451 161.871 380.818 163 380.818Z" fill="black"/>
<path d="M591.864 378.227V375.909L602.091 359.727H603.773V363.318H602.636L594.909 375.545V375.727H608.682V378.227H591.864ZM602.818 383V377.523V376.443V359.727H605.5V383H602.818Z" fill="black"/>
<path d="M376.409 383V380.955L384.091 372.545C384.992 371.561 385.735 370.705 386.318 369.977C386.902 369.242 387.333 368.553 387.614 367.909C387.902 367.258 388.045 366.576 388.045 365.864C388.045 365.045 387.848 364.337 387.455 363.739C387.068 363.14 386.538 362.678 385.864 362.352C385.189 362.027 384.432 361.864 383.591 361.864C382.697 361.864 381.917 362.049 381.25 362.42C380.591 362.784 380.08 363.295 379.716 363.955C379.36 364.614 379.182 365.386 379.182 366.273H376.5C376.5 364.909 376.814 363.712 377.443 362.682C378.072 361.652 378.928 360.848 380.011 360.273C381.102 359.697 382.326 359.409 383.682 359.409C385.045 359.409 386.254 359.697 387.307 360.273C388.36 360.848 389.186 361.625 389.784 362.602C390.383 363.58 390.682 364.667 390.682 365.864C390.682 366.72 390.527 367.557 390.216 368.375C389.913 369.186 389.383 370.091 388.625 371.091C387.875 372.083 386.833 373.295 385.5 374.727L380.273 380.318V380.5H391.091V383H376.409Z" fill="black"/>
<path d="M822.136 383.318C821.182 383.303 820.227 383.121 819.273 382.773C818.318 382.424 817.447 381.837 816.659 381.011C815.871 380.178 815.239 379.053 814.761 377.636C814.284 376.212 814.045 374.424 814.045 372.273C814.045 370.212 814.239 368.386 814.625 366.795C815.011 365.197 815.572 363.852 816.307 362.761C817.042 361.663 817.928 360.83 818.966 360.261C820.011 359.693 821.189 359.409 822.5 359.409C823.803 359.409 824.962 359.67 825.977 360.193C827 360.708 827.833 361.428 828.477 362.352C829.121 363.277 829.538 364.341 829.727 365.545H826.955C826.697 364.5 826.197 363.633 825.455 362.943C824.712 362.254 823.727 361.909 822.5 361.909C820.697 361.909 819.277 362.693 818.239 364.261C817.208 365.83 816.689 368.03 816.682 370.864H816.864C817.288 370.22 817.792 369.67 818.375 369.216C818.966 368.754 819.617 368.398 820.33 368.148C821.042 367.898 821.795 367.773 822.591 367.773C823.924 367.773 825.144 368.106 826.25 368.773C827.356 369.432 828.242 370.345 828.909 371.511C829.576 372.67 829.909 374 829.909 375.5C829.909 376.939 829.587 378.258 828.943 379.455C828.299 380.644 827.394 381.591 826.227 382.295C825.068 382.992 823.705 383.333 822.136 383.318ZM822.136 380.818C823.091 380.818 823.947 380.58 824.705 380.102C825.47 379.625 826.072 378.985 826.511 378.182C826.958 377.379 827.182 376.485 827.182 375.5C827.182 374.538 826.966 373.663 826.534 372.875C826.11 372.08 825.523 371.447 824.773 370.977C824.03 370.508 823.182 370.273 822.227 370.273C821.508 370.273 820.837 370.417 820.216 370.705C819.595 370.985 819.049 371.371 818.58 371.864C818.117 372.356 817.754 372.92 817.489 373.557C817.223 374.186 817.091 374.848 817.091 375.545C817.091 376.47 817.307 377.333 817.739 378.136C818.178 378.939 818.777 379.587 819.534 380.08C820.299 380.572 821.167 380.818 822.136 380.818Z" fill="black"/>
<path d="M280.591 359.727V383H277.773V362.682H277.636L271.955 366.455V363.591L277.773 359.727H280.591Z" fill="black"/>
<path d="M711.682 383.318C710.348 383.318 709.148 383.053 708.08 382.523C707.011 381.992 706.155 381.265 705.511 380.341C704.867 379.417 704.515 378.364 704.455 377.182H707.182C707.288 378.235 707.765 379.106 708.614 379.795C709.47 380.477 710.492 380.818 711.682 380.818C712.636 380.818 713.485 380.595 714.227 380.148C714.977 379.701 715.564 379.087 715.989 378.307C716.42 377.519 716.636 376.629 716.636 375.636C716.636 374.621 716.413 373.716 715.966 372.92C715.527 372.117 714.92 371.485 714.148 371.023C713.375 370.561 712.492 370.326 711.5 370.318C710.788 370.311 710.057 370.42 709.307 370.648C708.557 370.867 707.939 371.152 707.455 371.5L704.818 371.182L706.227 359.727H718.318V362.227H708.591L707.773 369.091H707.909C708.386 368.712 708.985 368.398 709.705 368.148C710.424 367.898 711.174 367.773 711.955 367.773C713.379 367.773 714.648 368.114 715.761 368.795C716.883 369.47 717.761 370.394 718.398 371.568C719.042 372.742 719.364 374.083 719.364 375.591C719.364 377.076 719.03 378.402 718.364 379.568C717.705 380.727 716.795 381.644 715.636 382.318C714.477 382.985 713.159 383.318 711.682 383.318Z" fill="black"/>
<path d="M499.273 383.318C497.773 383.318 496.436 383.061 495.261 382.545C494.095 382.03 493.167 381.314 492.477 380.398C491.795 379.473 491.424 378.402 491.364 377.182H494.227C494.288 377.932 494.545 378.58 495 379.125C495.455 379.663 496.049 380.08 496.784 380.375C497.519 380.67 498.333 380.818 499.227 380.818C500.227 380.818 501.114 380.644 501.886 380.295C502.659 379.947 503.265 379.462 503.705 378.841C504.144 378.22 504.364 377.5 504.364 376.682C504.364 375.826 504.152 375.072 503.727 374.42C503.303 373.761 502.682 373.246 501.864 372.875C501.045 372.504 500.045 372.318 498.864 372.318H497V369.818H498.864C499.788 369.818 500.598 369.652 501.295 369.318C502 368.985 502.549 368.515 502.943 367.909C503.345 367.303 503.545 366.591 503.545 365.773C503.545 364.985 503.371 364.299 503.023 363.716C502.674 363.133 502.182 362.678 501.545 362.352C500.917 362.027 500.174 361.864 499.318 361.864C498.515 361.864 497.758 362.011 497.045 362.307C496.341 362.595 495.765 363.015 495.318 363.568C494.871 364.114 494.629 364.773 494.591 365.545H491.864C491.909 364.326 492.277 363.258 492.966 362.341C493.655 361.417 494.557 360.697 495.67 360.182C496.792 359.667 498.023 359.409 499.364 359.409C500.803 359.409 502.038 359.701 503.068 360.284C504.098 360.86 504.89 361.621 505.443 362.568C505.996 363.515 506.273 364.538 506.273 365.636C506.273 366.947 505.928 368.064 505.239 368.989C504.557 369.913 503.629 370.553 502.455 370.909V371.091C503.924 371.333 505.072 371.958 505.898 372.966C506.723 373.966 507.136 375.205 507.136 376.682C507.136 377.947 506.792 379.083 506.102 380.091C505.42 381.091 504.489 381.879 503.307 382.455C502.125 383.03 500.78 383.318 499.273 383.318Z" fill="black"/>
<path d="M930.136 383L940.545 362.409V362.227H928.545V359.727H943.455V362.364L933.091 383H930.136Z" fill="black"/>
<path d="M1031.86 383.318C1030.3 383.318 1028.92 383.042 1027.73 382.489C1026.54 381.928 1025.61 381.159 1024.94 380.182C1024.28 379.197 1023.95 378.076 1023.95 376.818C1023.95 375.833 1024.14 374.924 1024.53 374.091C1024.93 373.25 1025.47 372.549 1026.15 371.989C1026.84 371.42 1027.61 371.061 1028.45 370.909V370.773C1027.34 370.485 1026.45 369.86 1025.8 368.898C1025.14 367.928 1024.81 366.826 1024.82 365.591C1024.81 364.409 1025.11 363.352 1025.72 362.42C1026.32 361.489 1027.16 360.754 1028.22 360.216C1029.28 359.678 1030.5 359.409 1031.86 359.409C1033.21 359.409 1034.42 359.678 1035.48 360.216C1036.54 360.754 1037.37 361.489 1037.98 362.42C1038.59 363.352 1038.9 364.409 1038.91 365.591C1038.9 366.826 1038.56 367.928 1037.9 368.898C1037.24 369.86 1036.36 370.485 1035.27 370.773V370.909C1036.11 371.061 1036.87 371.42 1037.55 371.989C1038.22 372.549 1038.76 373.25 1039.16 374.091C1039.56 374.924 1039.77 375.833 1039.77 376.818C1039.77 378.076 1039.42 379.197 1038.75 380.182C1038.08 381.159 1037.16 381.928 1035.97 382.489C1034.78 383.042 1033.42 383.318 1031.86 383.318ZM1031.86 380.818C1032.92 380.818 1033.83 380.648 1034.59 380.307C1035.36 379.966 1035.95 379.485 1036.36 378.864C1036.78 378.242 1036.99 377.515 1037 376.682C1036.99 375.803 1036.77 375.027 1036.32 374.352C1035.87 373.678 1035.26 373.148 1034.49 372.761C1033.72 372.375 1032.85 372.182 1031.86 372.182C1030.87 372.182 1029.98 372.375 1029.2 372.761C1028.43 373.148 1027.82 373.678 1027.38 374.352C1026.94 375.027 1026.72 375.803 1026.73 376.682C1026.72 377.515 1026.92 378.242 1027.33 378.864C1027.75 379.485 1028.34 379.966 1029.11 380.307C1029.89 380.648 1030.8 380.818 1031.86 380.818ZM1031.86 369.773C1032.7 369.773 1033.44 369.606 1034.08 369.273C1034.73 368.939 1035.24 368.473 1035.61 367.875C1035.98 367.277 1036.17 366.576 1036.18 365.773C1036.17 364.985 1035.99 364.299 1035.62 363.716C1035.26 363.125 1034.76 362.67 1034.11 362.352C1033.47 362.027 1032.72 361.864 1031.86 361.864C1030.99 361.864 1030.23 362.027 1029.58 362.352C1028.93 362.67 1028.42 363.125 1028.07 363.716C1027.71 364.299 1027.54 364.985 1027.55 365.773C1027.54 366.576 1027.72 367.277 1028.08 367.875C1028.45 368.473 1028.96 368.939 1029.61 369.273C1030.27 369.606 1031.02 369.773 1031.86 369.773Z" fill="black"/>
<rect x="111" y="238" width="106" height="103" fill="#D0BFFF"/>
<path d="M164.409 306.477C162.159 306.477 160.153 306.091 158.392 305.318C156.642 304.545 155.25 303.472 154.216 302.097C153.193 300.71 152.636 299.102 152.545 297.273H156.841C156.932 298.398 157.318 299.369 158 300.188C158.682 300.994 159.574 301.619 160.676 302.062C161.778 302.506 163 302.727 164.341 302.727C165.841 302.727 167.17 302.466 168.33 301.943C169.489 301.42 170.398 300.693 171.057 299.761C171.716 298.83 172.045 297.75 172.045 296.523C172.045 295.239 171.727 294.108 171.091 293.131C170.455 292.142 169.523 291.369 168.295 290.812C167.068 290.256 165.568 289.977 163.795 289.977H161V286.227H163.795C165.182 286.227 166.398 285.977 167.443 285.477C168.5 284.977 169.324 284.273 169.915 283.364C170.517 282.455 170.818 281.386 170.818 280.159C170.818 278.977 170.557 277.949 170.034 277.074C169.511 276.199 168.773 275.517 167.818 275.028C166.875 274.54 165.761 274.295 164.477 274.295C163.273 274.295 162.136 274.517 161.068 274.96C160.011 275.392 159.148 276.023 158.477 276.852C157.807 277.67 157.443 278.659 157.386 279.818H153.295C153.364 277.989 153.915 276.386 154.949 275.011C155.983 273.625 157.335 272.545 159.006 271.773C160.688 271 162.534 270.614 164.545 270.614C166.705 270.614 168.557 271.051 170.102 271.926C171.648 272.79 172.835 273.932 173.665 275.352C174.494 276.773 174.909 278.307 174.909 279.955C174.909 281.92 174.392 283.597 173.358 284.983C172.335 286.369 170.943 287.33 169.182 287.864V288.136C171.386 288.5 173.108 289.437 174.347 290.949C175.585 292.449 176.205 294.307 176.205 296.523C176.205 298.42 175.688 300.125 174.653 301.636C173.631 303.136 172.233 304.318 170.46 305.182C168.688 306.045 166.67 306.477 164.409 306.477Z" fill="black"/>
<rect x="547" y="238" width="106" height="103" fill="#D0BFFF"/>
<path d="M589.705 306L605.318 275.114V274.841H587.318V271.091H609.682V275.045L594.136 306H589.705Z" fill="black"/>
<rect x="329" y="238" width="106" height="103" fill="#D0BFFF"/>
<path d="M382 306.477C379.432 306.477 377.244 305.778 375.438 304.381C373.631 302.972 372.25 300.932 371.295 298.261C370.341 295.58 369.864 292.341 369.864 288.545C369.864 284.773 370.341 281.551 371.295 278.881C372.261 276.199 373.648 274.153 375.455 272.744C377.273 271.324 379.455 270.614 382 270.614C384.545 270.614 386.722 271.324 388.528 272.744C390.347 274.153 391.733 276.199 392.688 278.881C393.653 281.551 394.136 284.773 394.136 288.545C394.136 292.341 393.659 295.58 392.705 298.261C391.75 300.932 390.369 302.972 388.562 304.381C386.756 305.778 384.568 306.477 382 306.477ZM382 302.727C384.545 302.727 386.523 301.5 387.932 299.045C389.341 296.591 390.045 293.091 390.045 288.545C390.045 285.523 389.722 282.949 389.074 280.824C388.438 278.699 387.517 277.08 386.312 275.966C385.119 274.852 383.682 274.295 382 274.295C379.477 274.295 377.506 275.54 376.085 278.028C374.665 280.506 373.955 284.011 373.955 288.545C373.955 291.568 374.273 294.136 374.909 296.25C375.545 298.364 376.46 299.972 377.653 301.074C378.858 302.176 380.307 302.727 382 302.727Z" fill="black"/>
<rect x="765" y="238" width="106" height="103" fill="#D0BFFF"/>
<path d="M818 306.477C815.432 306.477 813.244 305.778 811.438 304.381C809.631 302.972 808.25 300.932 807.295 298.261C806.341 295.58 805.864 292.341 805.864 288.545C805.864 284.773 806.341 281.551 807.295 278.881C808.261 276.199 809.648 274.153 811.455 272.744C813.273 271.324 815.455 270.614 818 270.614C820.545 270.614 822.722 271.324 824.528 272.744C826.347 274.153 827.733 276.199 828.688 278.881C829.653 281.551 830.136 284.773 830.136 288.545C830.136 292.341 829.659 295.58 828.705 298.261C827.75 300.932 826.369 302.972 824.562 304.381C822.756 305.778 820.568 306.477 818 306.477ZM818 302.727C820.545 302.727 822.523 301.5 823.932 299.045C825.341 296.591 826.045 293.091 826.045 288.545C826.045 285.523 825.722 282.949 825.074 280.824C824.438 278.699 823.517 277.08 822.312 275.966C821.119 274.852 819.682 274.295 818 274.295C815.477 274.295 813.506 275.54 812.085 278.028C810.665 280.506 809.955 284.011 809.955 288.545C809.955 291.568 810.273 294.136 810.909 296.25C811.545 298.364 812.46 299.972 813.653 301.074C814.858 302.176 816.307 302.727 818 302.727Z" fill="black"/>
<rect x="220" y="238" width="106" height="103" fill="#D0BFFF"/>
<path d="M272.727 270.614C274.159 270.625 275.591 270.898 277.023 271.432C278.455 271.966 279.761 272.852 280.943 274.091C282.125 275.318 283.074 276.994 283.79 279.119C284.506 281.244 284.864 283.909 284.864 287.114C284.864 290.216 284.568 292.972 283.977 295.381C283.398 297.778 282.557 299.801 281.455 301.449C280.364 303.097 279.034 304.347 277.466 305.199C275.909 306.051 274.148 306.477 272.182 306.477C270.227 306.477 268.483 306.091 266.949 305.318C265.426 304.534 264.176 303.449 263.199 302.062C262.233 300.665 261.614 299.045 261.341 297.205H265.5C265.875 298.807 266.619 300.131 267.733 301.176C268.858 302.21 270.341 302.727 272.182 302.727C274.875 302.727 277 301.551 278.557 299.199C280.125 296.847 280.909 293.523 280.909 289.227H280.636C280 290.182 279.244 291.006 278.369 291.699C277.494 292.392 276.523 292.926 275.455 293.301C274.386 293.676 273.25 293.864 272.045 293.864C270.045 293.864 268.21 293.369 266.54 292.381C264.881 291.381 263.551 290.011 262.551 288.273C261.562 286.523 261.068 284.523 261.068 282.273C261.068 280.136 261.545 278.182 262.5 276.409C263.466 274.625 264.818 273.205 266.557 272.148C268.307 271.091 270.364 270.58 272.727 270.614ZM272.727 274.364C271.295 274.364 270.006 274.722 268.858 275.438C267.722 276.142 266.818 277.097 266.148 278.301C265.489 279.494 265.159 280.818 265.159 282.273C265.159 283.727 265.477 285.051 266.114 286.244C266.761 287.426 267.642 288.369 268.756 289.074C269.881 289.767 271.159 290.114 272.591 290.114C273.67 290.114 274.676 289.903 275.608 289.483C276.54 289.051 277.352 288.466 278.045 287.727C278.75 286.977 279.301 286.131 279.699 285.188C280.097 284.233 280.295 283.239 280.295 282.205C280.295 280.841 279.966 279.562 279.307 278.369C278.659 277.176 277.761 276.21 276.614 275.472C275.477 274.733 274.182 274.364 272.727 274.364Z" fill="black"/>
<rect x="656" y="238" width="106" height="103" fill="#D0BFFF"/>
<path d="M709.886 271.091V306H705.659V275.523H705.455L696.932 281.182V276.886L705.659 271.091H709.886Z" fill="black"/>
<rect x="438" y="238" width="106" height="103" fill="#D0BFFF"/>
<path d="M490.795 306.477C488.455 306.477 486.386 306.062 484.591 305.233C482.807 304.392 481.415 303.239 480.415 301.773C479.415 300.295 478.92 298.614 478.932 296.727C478.92 295.25 479.21 293.886 479.801 292.636C480.392 291.375 481.199 290.324 482.222 289.483C483.256 288.631 484.409 288.091 485.682 287.864V287.659C484.011 287.227 482.682 286.29 481.693 284.847C480.705 283.392 480.216 281.739 480.227 279.886C480.216 278.114 480.665 276.528 481.574 275.131C482.483 273.733 483.733 272.631 485.324 271.824C486.926 271.017 488.75 270.614 490.795 270.614C492.818 270.614 494.625 271.017 496.216 271.824C497.807 272.631 499.057 273.733 499.966 275.131C500.886 276.528 501.352 278.114 501.364 279.886C501.352 281.739 500.847 283.392 499.847 284.847C498.858 286.29 497.545 287.227 495.909 287.659V287.864C497.17 288.091 498.307 288.631 499.318 289.483C500.33 290.324 501.136 291.375 501.739 292.636C502.341 293.886 502.648 295.25 502.659 296.727C502.648 298.614 502.136 300.295 501.125 301.773C500.125 303.239 498.733 304.392 496.949 305.233C495.176 306.062 493.125 306.477 490.795 306.477ZM490.795 302.727C492.375 302.727 493.739 302.472 494.886 301.96C496.034 301.449 496.92 300.727 497.545 299.795C498.17 298.864 498.489 297.773 498.5 296.523C498.489 295.205 498.148 294.04 497.477 293.028C496.807 292.017 495.892 291.222 494.733 290.642C493.585 290.062 492.273 289.773 490.795 289.773C489.307 289.773 487.977 290.062 486.807 290.642C485.648 291.222 484.733 292.017 484.062 293.028C483.403 294.04 483.08 295.205 483.091 296.523C483.08 297.773 483.381 298.864 483.994 299.795C484.619 300.727 485.511 301.449 486.67 301.96C487.83 302.472 489.205 302.727 490.795 302.727ZM490.795 286.159C492.045 286.159 493.153 285.909 494.119 285.409C495.097 284.909 495.864 284.21 496.42 283.312C496.977 282.415 497.261 281.364 497.273 280.159C497.261 278.977 496.983 277.949 496.438 277.074C495.892 276.187 495.136 275.506 494.17 275.028C493.205 274.54 492.08 274.295 490.795 274.295C489.489 274.295 488.347 274.54 487.369 275.028C486.392 275.506 485.636 276.187 485.102 277.074C484.568 277.949 484.307 278.977 484.318 280.159C484.307 281.364 484.574 282.415 485.119 283.312C485.676 284.21 486.443 284.909 487.42 285.409C488.398 285.909 489.523 286.159 490.795 286.159Z" fill="black"/>
<rect x="874" y="238" width="106" height="103" fill="#D0BFFF"/>
<path d="M915.614 306V302.932L927.136 290.318C928.489 288.841 929.602 287.557 930.477 286.466C931.352 285.364 932 284.33 932.42 283.364C932.852 282.386 933.068 281.364 933.068 280.295C933.068 279.068 932.773 278.006 932.182 277.108C931.602 276.21 930.807 275.517 929.795 275.028C928.784 274.54 927.648 274.295 926.386 274.295C925.045 274.295 923.875 274.574 922.875 275.131C921.886 275.676 921.119 276.443 920.574 277.432C920.04 278.42 919.773 279.58 919.773 280.909H915.75C915.75 278.864 916.222 277.068 917.165 275.523C918.108 273.977 919.392 272.773 921.017 271.909C922.653 271.045 924.489 270.614 926.523 270.614C928.568 270.614 930.381 271.045 931.96 271.909C933.54 272.773 934.778 273.937 935.676 275.403C936.574 276.869 937.023 278.5 937.023 280.295C937.023 281.58 936.79 282.835 936.324 284.062C935.869 285.278 935.074 286.636 933.938 288.136C932.812 289.625 931.25 291.443 929.25 293.591L921.409 301.977V302.25H937.636V306H915.614Z" fill="black"/>
<rect x="983" y="238" width="106" height="103" fill="#D0BFFF"/>
<path d="M1036.89 271.091V306H1032.66V275.523H1032.45L1023.93 281.182V276.886L1032.66 271.091H1036.89Z" fill="black"/>
<path d="M219.591 194.409C218.485 194.409 217.481 194.201 216.58 193.784C215.678 193.36 214.962 192.75 214.432 191.955C213.902 191.152 213.636 190.182 213.636 189.045C213.636 188.045 213.833 187.235 214.227 186.614C214.621 185.985 215.148 185.492 215.807 185.136C216.466 184.78 217.193 184.515 217.989 184.341C218.792 184.159 219.598 184.015 220.409 183.909C221.47 183.773 222.33 183.67 222.989 183.602C223.655 183.527 224.14 183.402 224.443 183.227C224.754 183.053 224.909 182.75 224.909 182.318V182.227C224.909 181.106 224.602 180.235 223.989 179.614C223.383 178.992 222.462 178.682 221.227 178.682C219.947 178.682 218.943 178.962 218.216 179.523C217.489 180.083 216.977 180.682 216.682 181.318L214.136 180.409C214.591 179.348 215.197 178.523 215.955 177.932C216.72 177.333 217.553 176.917 218.455 176.682C219.364 176.439 220.258 176.318 221.136 176.318C221.697 176.318 222.341 176.386 223.068 176.523C223.803 176.652 224.511 176.92 225.193 177.33C225.883 177.739 226.455 178.356 226.909 179.182C227.364 180.008 227.591 181.114 227.591 182.5V194H224.909V191.636H224.773C224.591 192.015 224.288 192.42 223.864 192.852C223.439 193.284 222.875 193.652 222.17 193.955C221.466 194.258 220.606 194.409 219.591 194.409ZM220 192C221.061 192 221.955 191.792 222.682 191.375C223.417 190.958 223.97 190.42 224.341 189.761C224.72 189.102 224.909 188.409 224.909 187.682V185.227C224.795 185.364 224.545 185.489 224.159 185.602C223.78 185.708 223.341 185.803 222.841 185.886C222.348 185.962 221.867 186.03 221.398 186.091C220.936 186.144 220.561 186.189 220.273 186.227C219.576 186.318 218.924 186.466 218.318 186.67C217.72 186.867 217.235 187.167 216.864 187.568C216.5 187.962 216.318 188.5 216.318 189.182C216.318 190.114 216.663 190.818 217.352 191.295C218.049 191.765 218.932 192 220 192ZM232.486 194V176.545H235.077V179.182H235.259C235.577 178.318 236.152 177.617 236.986 177.08C237.819 176.542 238.759 176.273 239.804 176.273C240.001 176.273 240.247 176.277 240.543 176.284C240.838 176.292 241.062 176.303 241.213 176.318V179.045C241.122 179.023 240.914 178.989 240.588 178.943C240.27 178.89 239.933 178.864 239.577 178.864C238.728 178.864 237.971 179.042 237.304 179.398C236.645 179.746 236.122 180.231 235.736 180.852C235.357 181.466 235.168 182.167 235.168 182.955V194H232.486ZM244.392 194V176.545H246.983V179.182H247.165C247.483 178.318 248.059 177.617 248.892 177.08C249.725 176.542 250.665 176.273 251.71 176.273C251.907 176.273 252.153 176.277 252.449 176.284C252.744 176.292 252.968 176.303 253.119 176.318V179.045C253.028 179.023 252.82 178.989 252.494 178.943C252.176 178.89 251.839 178.864 251.483 178.864C250.634 178.864 249.877 179.042 249.21 179.398C248.551 179.746 248.028 180.231 247.642 180.852C247.263 181.466 247.074 182.167 247.074 182.955V194H244.392ZM261.435 194.409C260.329 194.409 259.325 194.201 258.423 193.784C257.522 193.36 256.806 192.75 256.276 191.955C255.745 191.152 255.48 190.182 255.48 189.045C255.48 188.045 255.677 187.235 256.071 186.614C256.465 185.985 256.991 185.492 257.651 185.136C258.31 184.78 259.037 184.515 259.832 184.341C260.635 184.159 261.442 184.015 262.253 183.909C263.313 183.773 264.173 183.67 264.832 183.602C265.499 183.527 265.984 183.402 266.287 183.227C266.598 183.053 266.753 182.75 266.753 182.318V182.227C266.753 181.106 266.446 180.235 265.832 179.614C265.226 178.992 264.306 178.682 263.071 178.682C261.791 178.682 260.787 178.962 260.06 179.523C259.332 180.083 258.821 180.682 258.526 181.318L255.98 180.409C256.435 179.348 257.041 178.523 257.798 177.932C258.563 177.333 259.397 176.917 260.298 176.682C261.207 176.439 262.101 176.318 262.98 176.318C263.541 176.318 264.185 176.386 264.912 176.523C265.647 176.652 266.355 176.92 267.037 177.33C267.726 177.739 268.298 178.356 268.753 179.182C269.207 180.008 269.435 181.114 269.435 182.5V194H266.753V191.636H266.616C266.435 192.015 266.132 192.42 265.707 192.852C265.283 193.284 264.719 193.652 264.014 193.955C263.31 194.258 262.45 194.409 261.435 194.409ZM261.844 192C262.904 192 263.798 191.792 264.526 191.375C265.26 190.958 265.813 190.42 266.185 189.761C266.563 189.102 266.753 188.409 266.753 187.682V185.227C266.639 185.364 266.389 185.489 266.003 185.602C265.624 185.708 265.185 185.803 264.685 185.886C264.192 185.962 263.711 186.03 263.241 186.091C262.779 186.144 262.404 186.189 262.116 186.227C261.42 186.318 260.768 186.466 260.162 186.67C259.563 186.867 259.079 187.167 258.707 187.568C258.344 187.962 258.162 188.5 258.162 189.182C258.162 190.114 258.507 190.818 259.196 191.295C259.893 191.765 260.776 192 261.844 192ZM275.432 200.545C274.977 200.545 274.572 200.508 274.216 200.432C273.86 200.364 273.614 200.295 273.477 200.227L274.159 197.864C274.811 198.03 275.386 198.091 275.886 198.045C276.386 198 276.83 197.777 277.216 197.375C277.61 196.981 277.97 196.341 278.295 195.455L278.795 194.091L272.341 176.545H275.25L280.068 190.455H280.25L285.068 176.545H287.977L280.568 196.545C280.235 197.447 279.822 198.193 279.33 198.784C278.837 199.383 278.265 199.826 277.614 200.114C276.97 200.402 276.242 200.545 275.432 200.545ZM307.835 194.364C306.153 194.364 304.703 193.992 303.483 193.25C302.271 192.5 301.335 191.455 300.676 190.114C300.025 188.765 299.699 187.197 299.699 185.409C299.699 183.621 300.025 182.045 300.676 180.682C301.335 179.311 302.252 178.242 303.426 177.477C304.608 176.705 305.987 176.318 307.562 176.318C308.472 176.318 309.369 176.47 310.256 176.773C311.142 177.076 311.949 177.568 312.676 178.25C313.403 178.924 313.983 179.818 314.415 180.932C314.847 182.045 315.062 183.417 315.062 185.045V186.182H301.608V183.864H312.335C312.335 182.879 312.138 182 311.744 181.227C311.358 180.455 310.805 179.845 310.085 179.398C309.373 178.951 308.532 178.727 307.562 178.727C306.494 178.727 305.57 178.992 304.79 179.523C304.017 180.045 303.422 180.727 303.006 181.568C302.589 182.409 302.381 183.311 302.381 184.273V185.818C302.381 187.136 302.608 188.254 303.062 189.17C303.525 190.08 304.165 190.773 304.983 191.25C305.801 191.72 306.752 191.955 307.835 191.955C308.54 191.955 309.176 191.856 309.744 191.659C310.32 191.455 310.816 191.152 311.233 190.75C311.65 190.341 311.972 189.833 312.199 189.227L314.79 189.955C314.517 190.833 314.059 191.606 313.415 192.273C312.771 192.932 311.975 193.447 311.028 193.818C310.081 194.182 309.017 194.364 307.835 194.364ZM321.824 170.727V194H319.142V170.727H321.824ZM334.054 194.364C332.372 194.364 330.921 193.992 329.702 193.25C328.49 192.5 327.554 191.455 326.895 190.114C326.243 188.765 325.918 187.197 325.918 185.409C325.918 183.621 326.243 182.045 326.895 180.682C327.554 179.311 328.471 178.242 329.645 177.477C330.827 176.705 332.205 176.318 333.781 176.318C334.69 176.318 335.588 176.47 336.474 176.773C337.361 177.076 338.168 177.568 338.895 178.25C339.622 178.924 340.202 179.818 340.634 180.932C341.065 182.045 341.281 183.417 341.281 185.045V186.182H327.827V183.864H338.554C338.554 182.879 338.357 182 337.963 181.227C337.577 180.455 337.024 179.845 336.304 179.398C335.592 178.951 334.751 178.727 333.781 178.727C332.713 178.727 331.789 178.992 331.009 179.523C330.236 180.045 329.641 180.727 329.224 181.568C328.808 182.409 328.599 183.311 328.599 184.273V185.818C328.599 187.136 328.827 188.254 329.281 189.17C329.743 190.08 330.384 190.773 331.202 191.25C332.02 191.72 332.971 191.955 334.054 191.955C334.759 191.955 335.395 191.856 335.963 191.659C336.539 191.455 337.035 191.152 337.452 190.75C337.868 190.341 338.19 189.833 338.418 189.227L341.009 189.955C340.736 190.833 340.277 191.606 339.634 192.273C338.99 192.932 338.194 193.447 337.247 193.818C336.3 194.182 335.236 194.364 334.054 194.364ZM345.361 194V176.545H347.952V179.273H348.179C348.543 178.341 349.13 177.617 349.94 177.102C350.751 176.58 351.724 176.318 352.861 176.318C354.012 176.318 354.971 176.58 355.736 177.102C356.509 177.617 357.111 178.341 357.543 179.273H357.724C358.171 178.371 358.842 177.655 359.736 177.125C360.63 176.587 361.702 176.318 362.952 176.318C364.512 176.318 365.789 176.807 366.781 177.784C367.774 178.754 368.27 180.265 368.27 182.318V194H365.588V182.318C365.588 181.03 365.236 180.11 364.531 179.557C363.827 179.004 362.997 178.727 362.043 178.727C360.815 178.727 359.865 179.098 359.19 179.841C358.516 180.576 358.179 181.508 358.179 182.636V194H355.452V182.045C355.452 181.053 355.13 180.254 354.486 179.648C353.842 179.034 353.012 178.727 351.997 178.727C351.3 178.727 350.649 178.913 350.043 179.284C349.444 179.655 348.959 180.17 348.588 180.83C348.224 181.481 348.043 182.235 348.043 183.091V194H345.361ZM380.491 194.364C378.81 194.364 377.359 193.992 376.139 193.25C374.927 192.5 373.991 191.455 373.332 190.114C372.681 188.765 372.355 187.197 372.355 185.409C372.355 183.621 372.681 182.045 373.332 180.682C373.991 179.311 374.908 178.242 376.082 177.477C377.264 176.705 378.643 176.318 380.219 176.318C381.128 176.318 382.026 176.47 382.912 176.773C383.798 177.076 384.605 177.568 385.332 178.25C386.06 178.924 386.639 179.818 387.071 180.932C387.503 182.045 387.719 183.417 387.719 185.045V186.182H374.264V183.864H384.991C384.991 182.879 384.795 182 384.401 181.227C384.014 180.455 383.461 179.845 382.741 179.398C382.029 178.951 381.188 178.727 380.219 178.727C379.151 178.727 378.226 178.992 377.446 179.523C376.673 180.045 376.079 180.727 375.662 181.568C375.245 182.409 375.037 183.311 375.037 184.273V185.818C375.037 187.136 375.264 188.254 375.719 189.17C376.181 190.08 376.821 190.773 377.639 191.25C378.457 191.72 379.408 191.955 380.491 191.955C381.196 191.955 381.832 191.856 382.401 191.659C382.976 191.455 383.473 191.152 383.889 190.75C384.306 190.341 384.628 189.833 384.855 189.227L387.446 189.955C387.173 190.833 386.715 191.606 386.071 192.273C385.427 192.932 384.632 193.447 383.685 193.818C382.738 194.182 381.673 194.364 380.491 194.364ZM394.48 183.5V194H391.798V176.545H394.389V179.273H394.616C395.026 178.386 395.647 177.674 396.48 177.136C397.313 176.591 398.389 176.318 399.707 176.318C400.889 176.318 401.923 176.561 402.81 177.045C403.696 177.523 404.385 178.25 404.878 179.227C405.37 180.197 405.616 181.424 405.616 182.909V194H402.935V183.091C402.935 181.72 402.579 180.652 401.866 179.886C401.154 179.114 400.177 178.727 398.935 178.727C398.079 178.727 397.313 178.913 396.639 179.284C395.973 179.655 395.446 180.197 395.06 180.909C394.673 181.621 394.48 182.485 394.48 183.5ZM418.108 176.545V178.818H409.062V176.545H418.108ZM411.699 172.364H414.381V189C414.381 189.758 414.491 190.326 414.71 190.705C414.938 191.076 415.225 191.326 415.574 191.455C415.93 191.576 416.305 191.636 416.699 191.636C416.994 191.636 417.237 191.621 417.426 191.591C417.616 191.553 417.767 191.523 417.881 191.5L418.426 193.909C418.244 193.977 417.991 194.045 417.665 194.114C417.339 194.189 416.926 194.227 416.426 194.227C415.669 194.227 414.926 194.064 414.199 193.739C413.479 193.413 412.881 192.917 412.403 192.25C411.934 191.583 411.699 190.742 411.699 189.727V172.364Z" fill="black"/>
<path d="M219.591 459.409C218.485 459.409 217.481 459.201 216.58 458.784C215.678 458.36 214.962 457.75 214.432 456.955C213.902 456.152 213.636 455.182 213.636 454.045C213.636 453.045 213.833 452.235 214.227 451.614C214.621 450.985 215.148 450.492 215.807 450.136C216.466 449.78 217.193 449.515 217.989 449.341C218.792 449.159 219.598 449.015 220.409 448.909C221.47 448.773 222.33 448.67 222.989 448.602C223.655 448.527 224.14 448.402 224.443 448.227C224.754 448.053 224.909 447.75 224.909 447.318V447.227C224.909 446.106 224.602 445.235 223.989 444.614C223.383 443.992 222.462 443.682 221.227 443.682C219.947 443.682 218.943 443.962 218.216 444.523C217.489 445.083 216.977 445.682 216.682 446.318L214.136 445.409C214.591 444.348 215.197 443.523 215.955 442.932C216.72 442.333 217.553 441.917 218.455 441.682C219.364 441.439 220.258 441.318 221.136 441.318C221.697 441.318 222.341 441.386 223.068 441.523C223.803 441.652 224.511 441.92 225.193 442.33C225.883 442.739 226.455 443.356 226.909 444.182C227.364 445.008 227.591 446.114 227.591 447.5V459H224.909V456.636H224.773C224.591 457.015 224.288 457.42 223.864 457.852C223.439 458.284 222.875 458.652 222.17 458.955C221.466 459.258 220.606 459.409 219.591 459.409ZM220 457C221.061 457 221.955 456.792 222.682 456.375C223.417 455.958 223.97 455.42 224.341 454.761C224.72 454.102 224.909 453.409 224.909 452.682V450.227C224.795 450.364 224.545 450.489 224.159 450.602C223.78 450.708 223.341 450.803 222.841 450.886C222.348 450.962 221.867 451.03 221.398 451.091C220.936 451.144 220.561 451.189 220.273 451.227C219.576 451.318 218.924 451.466 218.318 451.67C217.72 451.867 217.235 452.167 216.864 452.568C216.5 452.962 216.318 453.5 216.318 454.182C216.318 455.114 216.663 455.818 217.352 456.295C218.049 456.765 218.932 457 220 457ZM232.486 459V441.545H235.077V444.182H235.259C235.577 443.318 236.152 442.617 236.986 442.08C237.819 441.542 238.759 441.273 239.804 441.273C240.001 441.273 240.247 441.277 240.543 441.284C240.838 441.292 241.062 441.303 241.213 441.318V444.045C241.122 444.023 240.914 443.989 240.588 443.943C240.27 443.89 239.933 443.864 239.577 443.864C238.728 443.864 237.971 444.042 237.304 444.398C236.645 444.746 236.122 445.231 235.736 445.852C235.357 446.466 235.168 447.167 235.168 447.955V459H232.486ZM244.392 459V441.545H246.983V444.182H247.165C247.483 443.318 248.059 442.617 248.892 442.08C249.725 441.542 250.665 441.273 251.71 441.273C251.907 441.273 252.153 441.277 252.449 441.284C252.744 441.292 252.968 441.303 253.119 441.318V444.045C253.028 444.023 252.82 443.989 252.494 443.943C252.176 443.89 251.839 443.864 251.483 443.864C250.634 443.864 249.877 444.042 249.21 444.398C248.551 444.746 248.028 445.231 247.642 445.852C247.263 446.466 247.074 447.167 247.074 447.955V459H244.392ZM261.435 459.409C260.329 459.409 259.325 459.201 258.423 458.784C257.522 458.36 256.806 457.75 256.276 456.955C255.745 456.152 255.48 455.182 255.48 454.045C255.48 453.045 255.677 452.235 256.071 451.614C256.465 450.985 256.991 450.492 257.651 450.136C258.31 449.78 259.037 449.515 259.832 449.341C260.635 449.159 261.442 449.015 262.253 448.909C263.313 448.773 264.173 448.67 264.832 448.602C265.499 448.527 265.984 448.402 266.287 448.227C266.598 448.053 266.753 447.75 266.753 447.318V447.227C266.753 446.106 266.446 445.235 265.832 444.614C265.226 443.992 264.306 443.682 263.071 443.682C261.791 443.682 260.787 443.962 260.06 444.523C259.332 445.083 258.821 445.682 258.526 446.318L255.98 445.409C256.435 444.348 257.041 443.523 257.798 442.932C258.563 442.333 259.397 441.917 260.298 441.682C261.207 441.439 262.101 441.318 262.98 441.318C263.541 441.318 264.185 441.386 264.912 441.523C265.647 441.652 266.355 441.92 267.037 442.33C267.726 442.739 268.298 443.356 268.753 444.182C269.207 445.008 269.435 446.114 269.435 447.5V459H266.753V456.636H266.616C266.435 457.015 266.132 457.42 265.707 457.852C265.283 458.284 264.719 458.652 264.014 458.955C263.31 459.258 262.45 459.409 261.435 459.409ZM261.844 457C262.904 457 263.798 456.792 264.526 456.375C265.26 455.958 265.813 455.42 266.185 454.761C266.563 454.102 266.753 453.409 266.753 452.682V450.227C266.639 450.364 266.389 450.489 266.003 450.602C265.624 450.708 265.185 450.803 264.685 450.886C264.192 450.962 263.711 451.03 263.241 451.091C262.779 451.144 262.404 451.189 262.116 451.227C261.42 451.318 260.768 451.466 260.162 451.67C259.563 451.867 259.079 452.167 258.707 452.568C258.344 452.962 258.162 453.5 258.162 454.182C258.162 455.114 258.507 455.818 259.196 456.295C259.893 456.765 260.776 457 261.844 457ZM275.432 465.545C274.977 465.545 274.572 465.508 274.216 465.432C273.86 465.364 273.614 465.295 273.477 465.227L274.159 462.864C274.811 463.03 275.386 463.091 275.886 463.045C276.386 463 276.83 462.777 277.216 462.375C277.61 461.981 277.97 461.341 278.295 460.455L278.795 459.091L272.341 441.545H275.25L280.068 455.455H280.25L285.068 441.545H287.977L280.568 461.545C280.235 462.447 279.822 463.193 279.33 463.784C278.837 464.383 278.265 464.826 277.614 465.114C276.97 465.402 276.242 465.545 275.432 465.545ZM300.517 459V441.545H303.199V459H300.517ZM301.881 438.636C301.358 438.636 300.907 438.458 300.528 438.102C300.157 437.746 299.972 437.318 299.972 436.818C299.972 436.318 300.157 435.89 300.528 435.534C300.907 435.178 301.358 435 301.881 435C302.403 435 302.85 435.178 303.222 435.534C303.6 435.89 303.79 436.318 303.79 436.818C303.79 437.318 303.6 437.746 303.222 438.102C302.85 438.458 302.403 438.636 301.881 438.636ZM310.793 448.5V459H308.111V441.545H310.702V444.273H310.929C311.338 443.386 311.959 442.674 312.793 442.136C313.626 441.591 314.702 441.318 316.02 441.318C317.202 441.318 318.236 441.561 319.122 442.045C320.009 442.523 320.698 443.25 321.19 444.227C321.683 445.197 321.929 446.424 321.929 447.909V459H319.247V448.091C319.247 446.72 318.891 445.652 318.179 444.886C317.467 444.114 316.49 443.727 315.247 443.727C314.391 443.727 313.626 443.913 312.952 444.284C312.285 444.655 311.759 445.197 311.372 445.909C310.986 446.621 310.793 447.485 310.793 448.5ZM333.42 459.364C331.966 459.364 330.682 458.996 329.568 458.261C328.455 457.519 327.583 456.473 326.955 455.125C326.326 453.769 326.011 452.167 326.011 450.318C326.011 448.485 326.326 446.894 326.955 445.545C327.583 444.197 328.458 443.155 329.58 442.42C330.701 441.686 331.996 441.318 333.466 441.318C334.602 441.318 335.5 441.508 336.159 441.886C336.826 442.258 337.333 442.682 337.682 443.159C338.038 443.629 338.314 444.015 338.511 444.318H338.739V435.727H341.42V459H338.83V456.318H338.511C338.314 456.636 338.034 457.038 337.67 457.523C337.307 458 336.788 458.428 336.114 458.807C335.439 459.178 334.542 459.364 333.42 459.364ZM333.784 456.955C334.86 456.955 335.769 456.674 336.511 456.114C337.254 455.545 337.818 454.761 338.205 453.761C338.591 452.754 338.784 451.591 338.784 450.273C338.784 448.97 338.595 447.83 338.216 446.852C337.837 445.867 337.277 445.102 336.534 444.557C335.792 444.004 334.875 443.727 333.784 443.727C332.648 443.727 331.701 444.019 330.943 444.602C330.193 445.178 329.629 445.962 329.25 446.955C328.879 447.939 328.693 449.045 328.693 450.273C328.693 451.515 328.883 452.644 329.261 453.659C329.648 454.667 330.216 455.47 330.966 456.068C331.723 456.659 332.663 456.955 333.784 456.955ZM354.023 459.364C352.341 459.364 350.89 458.992 349.67 458.25C348.458 457.5 347.523 456.455 346.864 455.114C346.212 453.765 345.886 452.197 345.886 450.409C345.886 448.621 346.212 447.045 346.864 445.682C347.523 444.311 348.439 443.242 349.614 442.477C350.795 441.705 352.174 441.318 353.75 441.318C354.659 441.318 355.557 441.47 356.443 441.773C357.33 442.076 358.136 442.568 358.864 443.25C359.591 443.924 360.17 444.818 360.602 445.932C361.034 447.045 361.25 448.417 361.25 450.045V451.182H347.795V448.864H358.523C358.523 447.879 358.326 447 357.932 446.227C357.545 445.455 356.992 444.845 356.273 444.398C355.561 443.951 354.72 443.727 353.75 443.727C352.682 443.727 351.758 443.992 350.977 444.523C350.205 445.045 349.61 445.727 349.193 446.568C348.777 447.409 348.568 448.311 348.568 449.273V450.818C348.568 452.136 348.795 453.254 349.25 454.17C349.712 455.08 350.352 455.773 351.17 456.25C351.989 456.72 352.939 456.955 354.023 456.955C354.727 456.955 355.364 456.856 355.932 456.659C356.508 456.455 357.004 456.152 357.42 455.75C357.837 455.341 358.159 454.833 358.386 454.227L360.977 454.955C360.705 455.833 360.246 456.606 359.602 457.273C358.958 457.932 358.163 458.447 357.216 458.818C356.269 459.182 355.205 459.364 354.023 459.364ZM366.861 441.545L371.043 448.682L375.224 441.545H378.315L372.679 450.273L378.315 459H375.224L371.043 452.227L366.861 459H363.77L369.315 450.273L363.77 441.545H366.861Z" fill="black"/>
<path d="M170.001 260.031C170.02 260.583 170.484 261.014 171.036 260.994L180.03 260.674C180.582 260.654 181.013 260.191 180.994 259.639C180.974 259.087 180.511 258.655 179.959 258.675L171.964 258.96L171.678 250.965C171.659 250.413 171.195 249.982 170.643 250.001C170.092 250.021 169.66 250.485 169.68 251.037L170.001 260.031ZM225 202L224.268 201.319L170.268 259.314L171 259.995L171.732 260.677L225.732 202.681L225 202Z" fill="black"/>
<path d="M170.713 387.955C170.164 388.017 169.77 388.513 169.833 389.062L170.856 398.004C170.918 398.552 171.414 398.946 171.963 398.883C172.511 398.821 172.905 398.325 172.843 397.776L171.933 389.828L179.881 388.919C180.43 388.856 180.824 388.36 180.761 387.812C180.699 387.263 180.203 386.869 179.654 386.932L170.713 387.955ZM225 432L225.622 431.217L171.448 388.165L170.826 388.948L170.204 389.731L224.378 432.783L225 432Z" fill="black"/>
</svg>
