<svg width="1200" height="630" viewBox="0 0 1200 630" fill="none" xmlns="http://www.w3.org/2000/svg">
<rect width="1200" height="630" fill="#D0BFFF"/>
<path d="M152.83 219.375C152.511 216.398 151.17 214.08 148.807 212.42C146.466 210.761 143.42 209.932 139.67 209.932C137.034 209.932 134.773 210.33 132.886 211.125C131 211.92 129.557 213 128.557 214.364C127.557 215.727 127.045 217.284 127.023 219.034C127.023 220.489 127.352 221.75 128.011 222.818C128.693 223.886 129.614 224.795 130.773 225.545C131.932 226.273 133.216 226.886 134.625 227.386C136.034 227.886 137.455 228.307 138.886 228.648L145.432 230.284C148.068 230.898 150.602 231.727 153.034 232.773C155.489 233.818 157.682 235.136 159.614 236.727C161.568 238.318 163.114 240.239 164.25 242.489C165.386 244.739 165.955 247.375 165.955 250.398C165.955 254.489 164.909 258.091 162.818 261.205C160.727 264.295 157.705 266.716 153.75 268.466C149.818 270.193 145.057 271.057 139.466 271.057C134.034 271.057 129.318 270.216 125.318 268.534C121.341 266.852 118.227 264.398 115.977 261.17C113.75 257.943 112.545 254.011 112.364 249.375H124.807C124.989 251.807 125.739 253.83 127.057 255.443C128.375 257.057 130.091 258.261 132.205 259.057C134.341 259.852 136.727 260.25 139.364 260.25C142.114 260.25 144.523 259.841 146.591 259.023C148.682 258.182 150.318 257.023 151.5 255.545C152.682 254.045 153.284 252.295 153.307 250.295C153.284 248.477 152.75 246.977 151.705 245.795C150.659 244.591 149.193 243.591 147.307 242.795C145.443 241.977 143.261 241.25 140.761 240.614L132.818 238.568C127.068 237.091 122.523 234.852 119.182 231.852C115.864 228.83 114.205 224.818 114.205 219.818C114.205 215.705 115.318 212.102 117.545 209.011C119.795 205.92 122.852 203.523 126.716 201.818C130.58 200.091 134.955 199.227 139.841 199.227C144.795 199.227 149.136 200.091 152.864 201.818C156.614 203.523 159.557 205.898 161.693 208.943C163.83 211.966 164.932 215.443 165 219.375H152.83ZM202.832 217.636V227.182H172.73V217.636H202.832ZM180.162 205.091H192.503V254.25C192.503 255.909 192.753 257.182 193.253 258.068C193.776 258.932 194.457 259.523 195.298 259.841C196.139 260.159 197.071 260.318 198.094 260.318C198.866 260.318 199.571 260.261 200.207 260.148C200.866 260.034 201.366 259.932 201.707 259.841L203.787 269.489C203.128 269.716 202.185 269.966 200.957 270.239C199.753 270.511 198.276 270.67 196.526 270.716C193.435 270.807 190.651 270.341 188.173 269.318C185.696 268.273 183.73 266.659 182.276 264.477C180.844 262.295 180.139 259.568 180.162 256.295V205.091ZM228.222 271.057C224.903 271.057 221.915 270.466 219.256 269.284C216.619 268.08 214.528 266.307 212.983 263.966C211.46 261.625 210.699 258.739 210.699 255.307C210.699 252.352 211.244 249.909 212.335 247.977C213.426 246.045 214.915 244.5 216.801 243.341C218.688 242.182 220.813 241.307 223.176 240.716C225.563 240.102 228.028 239.659 230.574 239.386C233.642 239.068 236.131 238.784 238.04 238.534C239.949 238.261 241.335 237.852 242.199 237.307C243.085 236.739 243.528 235.864 243.528 234.682V234.477C243.528 231.909 242.767 229.92 241.244 228.511C239.722 227.102 237.528 226.398 234.665 226.398C231.642 226.398 229.244 227.057 227.472 228.375C225.722 229.693 224.54 231.25 223.926 233.045L212.403 231.409C213.313 228.227 214.813 225.568 216.903 223.432C218.994 221.273 221.551 219.659 224.574 218.591C227.597 217.5 230.938 216.955 234.597 216.955C237.119 216.955 239.631 217.25 242.131 217.841C244.631 218.432 246.915 219.409 248.983 220.773C251.051 222.114 252.71 223.943 253.96 226.261C255.233 228.58 255.869 231.477 255.869 234.955V270H244.006V262.807H243.597C242.847 264.261 241.79 265.625 240.426 266.898C239.085 268.148 237.392 269.159 235.347 269.932C233.324 270.682 230.949 271.057 228.222 271.057ZM231.426 261.989C233.903 261.989 236.051 261.5 237.869 260.523C239.688 259.523 241.085 258.205 242.062 256.568C243.062 254.932 243.562 253.148 243.562 251.216V245.045C243.176 245.364 242.517 245.659 241.585 245.932C240.676 246.205 239.653 246.443 238.517 246.648C237.381 246.852 236.256 247.034 235.142 247.193C234.028 247.352 233.063 247.489 232.244 247.602C230.403 247.852 228.756 248.261 227.301 248.83C225.847 249.398 224.699 250.193 223.858 251.216C223.017 252.216 222.597 253.511 222.597 255.102C222.597 257.375 223.426 259.091 225.085 260.25C226.744 261.409 228.858 261.989 231.426 261.989ZM294.426 217.636V227.182H264.324V217.636H294.426ZM271.756 205.091H284.097V254.25C284.097 255.909 284.347 257.182 284.847 258.068C285.369 258.932 286.051 259.523 286.892 259.841C287.733 260.159 288.665 260.318 289.688 260.318C290.46 260.318 291.165 260.261 291.801 260.148C292.46 260.034 292.96 259.932 293.301 259.841L295.381 269.489C294.722 269.716 293.778 269.966 292.551 270.239C291.347 270.511 289.869 270.67 288.119 270.716C285.028 270.807 282.244 270.341 279.767 269.318C277.29 268.273 275.324 266.659 273.869 264.477C272.438 262.295 271.733 259.568 271.756 256.295V205.091ZM327.366 271.023C322.116 271.023 317.582 269.932 313.764 267.75C309.969 265.545 307.048 262.432 305.003 258.409C302.957 254.364 301.935 249.602 301.935 244.125C301.935 238.739 302.957 234.011 305.003 229.943C307.071 225.852 309.957 222.67 313.662 220.398C317.366 218.102 321.719 216.955 326.719 216.955C329.946 216.955 332.991 217.477 335.855 218.523C338.741 219.545 341.287 221.136 343.491 223.295C345.719 225.455 347.469 228.205 348.741 231.545C350.014 234.864 350.651 238.818 350.651 243.409V247.193H307.73V238.875H338.821C338.798 236.511 338.287 234.409 337.287 232.568C336.287 230.705 334.889 229.239 333.094 228.17C331.321 227.102 329.253 226.568 326.889 226.568C324.366 226.568 322.151 227.182 320.241 228.409C318.332 229.614 316.844 231.205 315.776 233.182C314.73 235.136 314.196 237.284 314.173 239.625V246.886C314.173 249.932 314.73 252.545 315.844 254.727C316.957 256.886 318.514 258.545 320.514 259.705C322.514 260.841 324.855 261.409 327.537 261.409C329.332 261.409 330.957 261.159 332.412 260.659C333.866 260.136 335.128 259.375 336.196 258.375C337.264 257.375 338.071 256.136 338.616 254.659L350.139 255.955C349.412 259 348.026 261.659 345.98 263.932C343.957 266.182 341.366 267.932 338.207 269.182C335.048 270.409 331.435 271.023 327.366 271.023ZM361.091 270V217.636H372.886V226.534H373.5C374.591 223.534 376.398 221.193 378.92 219.511C381.443 217.807 384.455 216.955 387.955 216.955C391.5 216.955 394.489 217.818 396.92 219.545C399.375 221.25 401.102 223.58 402.102 226.534H402.648C403.807 223.625 405.761 221.307 408.511 219.58C411.284 217.83 414.568 216.955 418.364 216.955C423.182 216.955 427.114 218.477 430.159 221.523C433.205 224.568 434.727 229.011 434.727 234.852V270H422.352V236.761C422.352 233.511 421.489 231.136 419.761 229.636C418.034 228.114 415.92 227.352 413.42 227.352C410.443 227.352 408.114 228.284 406.432 230.148C404.773 231.989 403.943 234.386 403.943 237.341V270H391.841V236.25C391.841 233.545 391.023 231.386 389.386 229.773C387.773 228.159 385.659 227.352 383.045 227.352C381.273 227.352 379.659 227.807 378.205 228.716C376.75 229.602 375.591 230.864 374.727 232.5C373.864 234.114 373.432 236 373.432 238.159V270H361.091ZM470.429 271.023C465.179 271.023 460.645 269.932 456.827 267.75C453.031 265.545 450.111 262.432 448.065 258.409C446.02 254.364 444.997 249.602 444.997 244.125C444.997 238.739 446.02 234.011 448.065 229.943C450.134 225.852 453.02 222.67 456.724 220.398C460.429 218.102 464.781 216.955 469.781 216.955C473.009 216.955 476.054 217.477 478.918 218.523C481.804 219.545 484.349 221.136 486.554 223.295C488.781 225.455 490.531 228.205 491.804 231.545C493.077 234.864 493.713 238.818 493.713 243.409V247.193H450.793V238.875H481.884C481.861 236.511 481.349 234.409 480.349 232.568C479.349 230.705 477.952 229.239 476.156 228.17C474.384 227.102 472.315 226.568 469.952 226.568C467.429 226.568 465.213 227.182 463.304 228.409C461.395 229.614 459.906 231.205 458.838 233.182C457.793 235.136 457.259 237.284 457.236 239.625V246.886C457.236 249.932 457.793 252.545 458.906 254.727C460.02 256.886 461.577 258.545 463.577 259.705C465.577 260.841 467.918 261.409 470.599 261.409C472.395 261.409 474.02 261.159 475.474 260.659C476.929 260.136 478.19 259.375 479.259 258.375C480.327 257.375 481.134 256.136 481.679 254.659L493.202 255.955C492.474 259 491.088 261.659 489.043 263.932C487.02 266.182 484.429 267.932 481.27 269.182C478.111 270.409 474.497 271.023 470.429 271.023ZM516.494 239.318V270H504.153V217.636H515.949V226.534H516.562C517.767 223.602 519.688 221.273 522.324 219.545C524.983 217.818 528.267 216.955 532.176 216.955C535.79 216.955 538.938 217.727 541.619 219.273C544.324 220.818 546.415 223.057 547.892 225.989C549.392 228.92 550.131 232.477 550.108 236.659V270H537.767V238.568C537.767 235.068 536.858 232.33 535.04 230.352C533.244 228.375 530.756 227.386 527.574 227.386C525.415 227.386 523.494 227.864 521.812 228.818C520.153 229.75 518.847 231.102 517.892 232.875C516.96 234.648 516.494 236.795 516.494 239.318ZM588.801 217.636V227.182H558.699V217.636H588.801ZM566.131 205.091H578.472V254.25C578.472 255.909 578.722 257.182 579.222 258.068C579.744 258.932 580.426 259.523 581.267 259.841C582.108 260.159 583.04 260.318 584.062 260.318C584.835 260.318 585.54 260.261 586.176 260.148C586.835 260.034 587.335 259.932 587.676 259.841L589.756 269.489C589.097 269.716 588.153 269.966 586.926 270.239C585.722 270.511 584.244 270.67 582.494 270.716C579.403 270.807 576.619 270.341 574.142 269.318C571.665 268.273 569.699 266.659 568.244 264.477C566.813 262.295 566.108 259.568 566.131 256.295V205.091Z" fill="black"/>
<path d="M626.886 428V358.182H672.295V368.784H639.534V387.739H669.943V398.341H639.534V417.398H672.568V428H626.886ZM694.744 375.636L705.312 394.966L716.051 375.636H729.108L713.324 401.818L729.381 428H716.392L705.312 409.148L694.335 428H681.244L697.199 401.818L681.653 375.636H694.744ZM738.653 447.636V375.636H750.79V384.295H751.506C752.142 383.023 753.04 381.67 754.199 380.239C755.358 378.784 756.926 377.545 758.903 376.523C760.881 375.477 763.403 374.955 766.472 374.955C770.517 374.955 774.165 375.989 777.415 378.057C780.688 380.102 783.278 383.136 785.188 387.159C787.119 391.159 788.085 396.068 788.085 401.886C788.085 407.636 787.142 412.523 785.256 416.545C783.369 420.568 780.801 423.636 777.551 425.75C774.301 427.864 770.619 428.92 766.506 428.92C763.506 428.92 761.017 428.42 759.04 427.42C757.063 426.42 755.472 425.216 754.267 423.807C753.085 422.375 752.165 421.023 751.506 419.75H750.994V447.636H738.653ZM750.756 401.818C750.756 405.205 751.233 408.17 752.188 410.716C753.165 413.261 754.563 415.25 756.381 416.682C758.222 418.091 760.449 418.795 763.062 418.795C765.79 418.795 768.074 418.068 769.915 416.614C771.756 415.136 773.142 413.125 774.074 410.58C775.028 408.011 775.506 405.091 775.506 401.818C775.506 398.568 775.04 395.682 774.108 393.159C773.176 390.636 771.79 388.659 769.949 387.227C768.108 385.795 765.812 385.08 763.062 385.08C760.426 385.08 758.188 385.773 756.347 387.159C754.506 388.545 753.108 390.489 752.153 392.989C751.222 395.489 750.756 398.432 750.756 401.818ZM798.653 428V375.636H810.619V384.364H811.165C812.119 381.341 813.756 379.011 816.074 377.375C818.415 375.716 821.085 374.886 824.085 374.886C824.767 374.886 825.528 374.92 826.369 374.989C827.233 375.034 827.949 375.114 828.517 375.227V386.58C827.994 386.398 827.165 386.239 826.028 386.102C824.915 385.943 823.835 385.864 822.79 385.864C820.54 385.864 818.517 386.352 816.722 387.33C814.949 388.284 813.551 389.614 812.528 391.318C811.506 393.023 810.994 394.989 810.994 397.216V428H798.653ZM857.741 429.023C852.491 429.023 847.957 427.932 844.139 425.75C840.344 423.545 837.423 420.432 835.378 416.409C833.332 412.364 832.31 407.602 832.31 402.125C832.31 396.739 833.332 392.011 835.378 387.943C837.446 383.852 840.332 380.67 844.037 378.398C847.741 376.102 852.094 374.955 857.094 374.955C860.321 374.955 863.366 375.477 866.23 376.523C869.116 377.545 871.662 379.136 873.866 381.295C876.094 383.455 877.844 386.205 879.116 389.545C880.389 392.864 881.026 396.818 881.026 401.409V405.193H838.105V396.875H869.196C869.173 394.511 868.662 392.409 867.662 390.568C866.662 388.705 865.264 387.239 863.469 386.17C861.696 385.102 859.628 384.568 857.264 384.568C854.741 384.568 852.526 385.182 850.616 386.409C848.707 387.614 847.219 389.205 846.151 391.182C845.105 393.136 844.571 395.284 844.548 397.625V404.886C844.548 407.932 845.105 410.545 846.219 412.727C847.332 414.886 848.889 416.545 850.889 417.705C852.889 418.841 855.23 419.409 857.912 419.409C859.707 419.409 861.332 419.159 862.787 418.659C864.241 418.136 865.503 417.375 866.571 416.375C867.639 415.375 868.446 414.136 868.991 412.659L880.514 413.955C879.787 417 878.401 419.659 876.355 421.932C874.332 424.182 871.741 425.932 868.582 427.182C865.423 428.409 861.81 429.023 857.741 429.023ZM932.852 389.477L921.602 390.705C921.284 389.568 920.727 388.5 919.932 387.5C919.159 386.5 918.114 385.693 916.795 385.08C915.477 384.466 913.864 384.159 911.955 384.159C909.386 384.159 907.227 384.716 905.477 385.83C903.75 386.943 902.898 388.386 902.92 390.159C902.898 391.682 903.455 392.92 904.591 393.875C905.75 394.83 907.659 395.614 910.318 396.227L919.25 398.136C924.205 399.205 927.886 400.898 930.295 403.216C932.727 405.534 933.955 408.568 933.977 412.318C933.955 415.614 932.989 418.523 931.08 421.045C929.193 423.545 926.568 425.5 923.205 426.909C919.841 428.318 915.977 429.023 911.614 429.023C905.205 429.023 900.045 427.682 896.136 425C892.227 422.295 889.898 418.534 889.148 413.716L901.182 412.557C901.727 414.92 902.886 416.705 904.659 417.909C906.432 419.114 908.739 419.716 911.58 419.716C914.511 419.716 916.864 419.114 918.636 417.909C920.432 416.705 921.33 415.216 921.33 413.443C921.33 411.943 920.75 410.705 919.591 409.727C918.455 408.75 916.682 408 914.273 407.477L905.341 405.602C900.318 404.557 896.602 402.795 894.193 400.318C891.784 397.818 890.591 394.659 890.614 390.841C890.591 387.614 891.466 384.818 893.239 382.455C895.034 380.068 897.523 378.227 900.705 376.932C903.909 375.614 907.602 374.955 911.784 374.955C917.92 374.955 922.75 376.261 926.273 378.875C929.818 381.489 932.011 385.023 932.852 389.477ZM985.54 389.477L974.29 390.705C973.972 389.568 973.415 388.5 972.619 387.5C971.847 386.5 970.801 385.693 969.483 385.08C968.165 384.466 966.551 384.159 964.642 384.159C962.074 384.159 959.915 384.716 958.165 385.83C956.438 386.943 955.585 388.386 955.608 390.159C955.585 391.682 956.142 392.92 957.278 393.875C958.438 394.83 960.347 395.614 963.006 396.227L971.938 398.136C976.892 399.205 980.574 400.898 982.983 403.216C985.415 405.534 986.642 408.568 986.665 412.318C986.642 415.614 985.676 418.523 983.767 421.045C981.881 423.545 979.256 425.5 975.892 426.909C972.528 428.318 968.665 429.023 964.301 429.023C957.892 429.023 952.733 427.682 948.824 425C944.915 422.295 942.585 418.534 941.835 413.716L953.869 412.557C954.415 414.92 955.574 416.705 957.347 417.909C959.119 419.114 961.426 419.716 964.267 419.716C967.199 419.716 969.551 419.114 971.324 417.909C973.119 416.705 974.017 415.216 974.017 413.443C974.017 411.943 973.438 410.705 972.278 409.727C971.142 408.75 969.369 408 966.96 407.477L958.028 405.602C953.006 404.557 949.29 402.795 946.881 400.318C944.472 397.818 943.278 394.659 943.301 390.841C943.278 387.614 944.153 384.818 945.926 382.455C947.722 380.068 950.21 378.227 953.392 376.932C956.597 375.614 960.29 374.955 964.472 374.955C970.608 374.955 975.438 376.261 978.96 378.875C982.506 381.489 984.699 385.023 985.54 389.477ZM996.841 428V375.636H1009.18V428H996.841ZM1003.05 368.205C1001.09 368.205 999.409 367.557 998 366.261C996.591 364.943 995.886 363.364 995.886 361.523C995.886 359.659 996.591 358.08 998 356.784C999.409 355.466 1001.09 354.807 1003.05 354.807C1005.02 354.807 1006.7 355.466 1008.09 356.784C1009.5 358.08 1010.2 359.659 1010.2 361.523C1010.2 363.364 1009.5 364.943 1008.09 366.261C1006.7 367.557 1005.02 368.205 1003.05 368.205ZM1044.71 429.023C1039.6 429.023 1035.17 427.898 1031.42 425.648C1027.67 423.398 1024.76 420.25 1022.69 416.205C1020.64 412.159 1019.62 407.432 1019.62 402.023C1019.62 396.614 1020.64 391.875 1022.69 387.807C1024.76 383.739 1027.67 380.58 1031.42 378.33C1035.17 376.08 1039.6 374.955 1044.71 374.955C1049.83 374.955 1054.26 376.08 1058.01 378.33C1061.76 380.58 1064.66 383.739 1066.7 387.807C1068.77 391.875 1069.8 396.614 1069.8 402.023C1069.8 407.432 1068.77 412.159 1066.7 416.205C1064.66 420.25 1061.76 423.398 1058.01 425.648C1054.26 427.898 1049.83 429.023 1044.71 429.023ZM1044.78 419.136C1047.55 419.136 1049.87 418.375 1051.74 416.852C1053.6 415.307 1054.99 413.239 1055.89 410.648C1056.83 408.057 1057.29 405.17 1057.29 401.989C1057.29 398.784 1056.83 395.886 1055.89 393.295C1054.99 390.682 1053.6 388.602 1051.74 387.057C1049.87 385.511 1047.55 384.739 1044.78 384.739C1041.94 384.739 1039.58 385.511 1037.69 387.057C1035.83 388.602 1034.43 390.682 1033.5 393.295C1032.59 395.886 1032.13 398.784 1032.13 401.989C1032.13 405.17 1032.59 408.057 1033.5 410.648C1034.43 413.239 1035.83 415.307 1037.69 416.852C1039.58 418.375 1041.94 419.136 1044.78 419.136ZM1092.62 397.318V428H1080.28V375.636H1092.07V384.534H1092.69C1093.89 381.602 1095.81 379.273 1098.45 377.545C1101.11 375.818 1104.39 374.955 1108.3 374.955C1111.91 374.955 1115.06 375.727 1117.74 377.273C1120.45 378.818 1122.54 381.057 1124.02 383.989C1125.52 386.92 1126.26 390.477 1126.23 394.659V428H1113.89V396.568C1113.89 393.068 1112.98 390.33 1111.16 388.352C1109.37 386.375 1106.88 385.386 1103.7 385.386C1101.54 385.386 1099.62 385.864 1097.94 386.818C1096.28 387.75 1094.97 389.102 1094.02 390.875C1093.09 392.648 1092.62 394.795 1092.62 397.318Z" fill="black"/>
<line x1="667.231" y1="133.816" x2="526.816" y2="498.733" stroke="black" stroke-width="9" stroke-linecap="round"/>
</svg>
